<svg
  width="48"
  height="18"
  viewBox="0 0 48 18"
  xmlns="http://www.w3.org/2000/svg"
>
<g clip-path="url(#clip0_0_685)">
<path
      d="M40.1839 0.018919C40.1448 0.023035 39.9966 0.0374413 39.8546 0.0477314C37.634 0.239124 35.5719 1.1611 34.1128 2.62022C33.479 3.25614 33.0015 3.91469 32.5878 4.72966C32.1001 5.69485 31.8058 6.7115 31.672 7.89896C31.6021 8.53282 31.6124 9.60915 31.6967 10.2759C32.2215 14.4393 35.2303 17.3595 39.5562 17.9111C40.118 17.9831 40.5193 17.9996 41.3364 17.9872C42.53 17.9687 43.454 17.8637 44.5283 17.623C45.228 17.4666 46.0656 17.2134 46.3476 17.0714C47.0185 16.736 47.4939 16.0651 47.5926 15.3139C47.6091 15.1966 47.6132 14.254 47.6091 12.2825L47.6029 9.42187L47.5474 9.22637C47.2901 8.31673 46.6686 7.72403 45.7405 7.50589C45.5985 7.47296 45.3865 7.46884 43.0712 7.46267L40.5543 7.45444V8.00598C40.5543 8.31056 40.5646 8.63778 40.577 8.73245C40.6984 9.71822 41.3487 10.4653 42.3201 10.7328C42.4641 10.774 42.5423 10.7781 43.1536 10.7863L43.8265 10.7925L43.8224 12.3586L43.8162 13.9248L43.6001 14.005C43.0013 14.2314 42.3242 14.3446 41.4763 14.3652C40.6943 14.3837 40.151 14.324 39.5459 14.1573C37.9386 13.7148 36.7841 12.5706 36.2861 10.9304C35.9671 9.87669 35.9321 8.56575 36.1934 7.50177C36.321 6.98521 36.5659 6.39663 36.8397 5.95416C37.5785 4.76258 38.7721 3.95585 40.1427 3.7233C40.4926 3.66362 40.8177 3.64304 41.2335 3.65539C42.0011 3.67802 42.6823 3.82826 43.3203 4.11638C43.6722 4.27484 43.7895 4.32012 43.9603 4.36539C44.7176 4.56708 45.5408 4.36745 46.0883 3.84678C46.1603 3.77681 46.506 3.39402 46.8579 2.99271L47.498 2.26624L47.3951 2.17569C47.0493 1.86493 46.6048 1.54595 46.2056 1.31545C44.979 0.607504 43.3779 0.146515 41.7377 0.0271511C41.4784 0.00862885 40.3609 0.00245476 40.1839 0.018919Z"
    />
<path
      d="M2.08228 0.492315C1.07592 0.677534 0.320638 1.45957 0.176579 2.46799C0.160115 2.58529 0.155999 4.4025 0.160115 9.12352L0.166289 15.6165L0.223913 15.8223C0.300058 16.1022 0.491452 16.4808 0.662265 16.6928C1.01624 17.1353 1.49575 17.4193 2.07199 17.5304C2.21811 17.5572 2.58031 17.5613 4.86674 17.5613C6.44522 17.5613 7.60799 17.553 7.78086 17.5407C9.72155 17.3987 11.2156 16.8389 12.1932 15.8861C12.5739 15.5136 12.7982 15.2111 13.0205 14.7645C13.3086 14.1882 13.4609 13.5338 13.4856 12.7765C13.5021 12.194 13.4424 11.7392 13.2839 11.2556C12.8476 9.92614 11.7116 8.963 10.2052 8.64607C10.0838 8.62137 9.9932 8.59256 9.9932 8.57816C9.9932 8.56581 10.0735 8.52465 10.1743 8.4876C11.8516 7.8558 12.7921 6.54898 12.7921 4.84702C12.7921 3.9909 12.5739 3.19651 12.1664 2.56883C11.5058 1.55424 10.2834 0.868927 8.64522 0.593157C7.9064 0.469677 7.98254 0.471735 4.99228 0.467619C2.66469 0.463503 2.22016 0.467619 2.08228 0.492315ZM7.10995 3.80156C7.93315 3.93945 8.41884 4.22345 8.65345 4.70296C8.7584 4.91699 8.79956 5.12485 8.79956 5.42326C8.79751 6.2588 8.37356 6.82887 7.54625 7.10669C7.44541 7.14168 7.25813 7.18901 7.12848 7.21165C6.90827 7.25487 6.81978 7.25693 5.52324 7.26516L4.1485 7.27339V5.51175V3.75011L5.52324 3.75834C6.70659 3.76452 6.92473 3.77069 7.10995 3.80156ZM7.34868 10.3645C8.49087 10.5271 9.08357 10.9222 9.2976 11.6672C9.33876 11.8092 9.34493 11.8771 9.34493 12.1899C9.34493 12.6118 9.31818 12.7518 9.18235 13.044C8.86954 13.7087 8.15541 14.0936 7.03175 14.2068C6.91033 14.2191 6.24766 14.2273 5.48414 14.2273H4.1485V12.2702V10.3151L5.63643 10.3233C6.84036 10.3295 7.16552 10.3377 7.34868 10.3645Z"
    />
<path
      d="M21.8987 0.492315C21.3986 0.582867 20.9129 0.846291 20.5918 1.19615C20.4395 1.36079 20.2626 1.62009 20.1905 1.78473C20.1617 1.84853 19.248 4.20904 18.1613 7.03055C17.0727 9.85205 15.7206 13.3589 15.1546 14.8242C14.5887 16.2894 14.1215 17.5057 14.1153 17.5242C14.105 17.5592 14.1874 17.5613 15.6588 17.5613C16.9759 17.5613 17.2373 17.5572 17.3793 17.5304C18.1305 17.3864 18.7293 16.9377 19.0525 16.275C19.1245 16.1269 19.3303 15.5177 19.7995 14.073C22.8659 4.61447 22.5922 5.43972 22.6519 5.43972C22.7074 5.43972 22.5901 5.08781 25.5125 14.0421C25.8747 15.1575 26.2081 16.1454 26.2513 16.238C26.4036 16.5652 26.6629 16.8821 26.9613 17.1065C27.1548 17.2526 27.5129 17.4255 27.7639 17.4934L27.9697 17.551L29.6326 17.5572C30.5463 17.5592 31.2934 17.5572 31.2934 17.551C31.2934 17.5448 30.8015 16.2421 30.2006 14.6533C29.5997 13.0666 28.2702 9.55364 27.2474 6.84944C26.2225 4.14319 25.3458 1.84647 25.2964 1.74563C25.0124 1.15293 24.4629 0.710463 23.7817 0.525244C23.5903 0.473793 23.5697 0.471735 22.8247 0.467619C22.2238 0.463503 22.0283 0.467619 21.8987 0.492315Z"
    />
</g>
<defs>
<clipPath id="clip0_0_685">
<rect width="47.7692" height="18" />
</clipPath>
</defs>
</svg>
