<svg width="40" height="40" viewBox="0 0 40 40" fill="none" xmlns="http://www.w3.org/2000/svg">
<circle cx="20" cy="20" r="20" fill="#D9D9D9"/>
<path d="M18 10.25C17.5858 10.25 17.25 10.5858 17.25 11V11.75H13C12.5858 11.75 12.25 12.0858 12.25 12.5C12.25 12.9142 12.5858 13.25 13 13.25H27C27.4142 13.25 27.75 12.9142 27.75 12.5C27.75 12.0858 27.4142 11.75 27 11.75H22.75V11C22.75 10.5858 22.4142 10.25 22 10.25H18Z" fill="white"/>
<path d="M18 18.65C18.4142 18.65 18.75 18.9858 18.75 19.4L18.75 26.4C18.75 26.8142 18.4142 27.15 18 27.15C17.5858 27.15 17.25 26.8142 17.25 26.4L17.25 19.4C17.25 18.9858 17.5858 18.65 18 18.65Z" fill="white"/>
<path d="M22.75 19.4C22.75 18.9858 22.4142 18.65 22 18.65C21.5858 18.65 21.25 18.9858 21.25 19.4V26.4C21.25 26.8142 21.5858 27.15 22 27.15C22.4142 27.15 22.75 26.8142 22.75 26.4V19.4Z" fill="white"/>
<path fill-rule="evenodd" clip-rule="evenodd" d="M13.9914 15.9172C14.0336 15.5374 14.3547 15.25 14.7368 15.25H25.2632C25.6453 15.25 25.9664 15.5374 26.0086 15.9172L26.2087 17.7185C26.5715 20.9838 26.5715 24.2793 26.2087 27.5446L26.189 27.722C26.045 29.0181 25.0404 30.0517 23.7489 30.2325C21.2618 30.5807 18.7382 30.5807 16.2511 30.2325C14.9595 30.0517 13.955 29.0181 13.811 27.722L13.7913 27.5446C13.4285 24.2793 13.4285 20.9838 13.7913 17.7185L13.9914 15.9172ZM15.4081 16.75L15.2821 17.8842C14.9315 21.0394 14.9315 24.2238 15.2821 27.379L15.3018 27.5563C15.3701 28.171 15.8465 28.6612 16.459 28.747C18.8082 29.0758 21.1918 29.0758 23.5409 28.747C24.1535 28.6612 24.6299 28.171 24.6982 27.5563L24.7179 27.379C25.0685 24.2238 25.0685 21.0394 24.7179 17.8842L24.5919 16.75H15.4081Z" fill="white"/>
</svg>
