<svg
  width="32"
  height="32"
  viewBox="0 0 32 32"
  xmlns="http://www.w3.org/2000/svg"
>
<path
    fill-rule="evenodd"
    clip-rule="evenodd"
    d="M19.1801 20.5944C15.6464 23.4246 10.4738 23.2018 7.19811 19.9261C3.68339 16.4114 3.68339 10.7129 7.19811 7.19817C10.7128 3.68345 16.4113 3.68345 19.926 7.19817C23.2017 10.4739 23.4245 15.6464 20.5943 19.1801L27.4685 26.0543C27.859 26.4448 27.859 27.078 27.4685 27.4685C27.078 27.8591 26.4448 27.8591 26.0543 27.4685L19.1801 20.5944ZM8.61232 18.5119C5.87865 15.7782 5.87865 11.3461 8.61232 8.61239C11.346 5.87872 15.7781 5.87872 18.5118 8.61239C21.2435 11.344 21.2455 15.7717 18.5178 18.5059C18.5158 18.5078 18.5138 18.5098 18.5118 18.5118C18.5098 18.5139 18.5078 18.5159 18.5058 18.5179C15.7717 21.2455 11.344 21.2435 8.61232 18.5119Z"
  />
</svg>
